<?xml version="1.0" encoding="utf-8"?>
<!-- Generator: Adobe Illustrator 25.0.0, SVG Export Plug-In . SVG Version: 6.00 Build 0)  -->
<svg version="1.1" id="Calque_1" xmlns="http://www.w3.org/2000/svg" xmlns:xlink="http://www.w3.org/1999/xlink" x="0px" y="0px"
	 viewBox="0 0 88 88" style="enable-background:new 0 0 88 88;" xml:space="preserve">
<style type="text/css">
	.st0{fill:#D9EEF4;}
	.st1{fill:#575958;}
</style>
<g id="Circle_Grid">
	<circle class="st0" cx="44" cy="44" r="44"/>
</g>
<g>
	<g>
		<g>
			<circle class="st1" cx="44" cy="46.4" r="12.1"/>
			<path class="st1" d="M68.2,27.1h-7.7c-1,0-1.9-0.4-2.6-1.1l-4.4-4.4c-1.1-1.1-2.7-1.8-4.3-1.8H38.8c-1.6,0-3.1,0.6-4.3,1.8
				L30.1,26c-0.7,0.7-1.6,1.1-2.6,1.1h-7.7c-2.7,0-4.8,2.2-4.8,4.8v31.4c0,2.7,2.2,4.8,4.8,4.8h48.3c2.7,0,4.8-2.2,4.8-4.8V31.9
				C73,29.3,70.8,27.1,68.2,27.1z M44,60.9c-8,0-14.5-6.5-14.5-14.5S36,31.9,44,31.9s14.5,6.5,14.5,14.5S52,60.9,44,60.9z
				 M63.3,39.2c-1.3,0-2.4-1.1-2.4-2.4c0-1.3,1.1-2.4,2.4-2.4s2.4,1.1,2.4,2.4C65.7,38.1,64.7,39.2,63.3,39.2z"/>
		</g>
	</g>
</g>
</svg>
