<?xml version="1.0" encoding="utf-8"?>
<!-- Generator: Adobe Illustrator 25.0.0, SVG Export Plug-In . SVG Version: 6.00 Build 0)  -->
<svg version="1.1" id="Capa_1" xmlns="http://www.w3.org/2000/svg" xmlns:xlink="http://www.w3.org/1999/xlink" x="0px" y="0px"
	 viewBox="0 0 88 88" style="enable-background:new 0 0 88 88;" xml:space="preserve">
<style type="text/css">
	.st0{fill:#D9EEF4;}
	.st1{fill:#575958;}
</style>
<g>
	<g>
		<circle class="st0" cx="44" cy="44" r="44"/>
	</g>
</g>
<g>
	<path class="st1" d="M30.8,58.9c-3.7,0-6.9-2.3-8.1-5.8l-0.1-0.3c-0.3-0.9-0.4-1.7-0.4-2.5V34.7l-5.6,18.6
		c-0.7,2.7,0.9,5.6,3.6,6.3L55.8,69c0.4,0.1,0.9,0.2,1.3,0.2c2.3,0,4.4-1.5,5-3.7l2.1-6.6H30.8z"/>
	<path class="st1" d="M37.1,34.8c2.5,0,4.6-2.1,4.6-4.6c0-2.5-2.1-4.6-4.6-4.6c-2.5,0-4.6,2.1-4.6,4.6
		C32.5,32.8,34.6,34.8,37.1,34.8z"/>
	<path class="st1" d="M65.8,18.8H31.4c-3.2,0-5.7,2.6-5.7,5.7v25.2c0,3.2,2.6,5.7,5.7,5.7h34.4c3.2,0,5.7-2.6,5.7-5.7V24.5
		C71.5,21.4,68.9,18.8,65.8,18.8z M31.4,23.4h34.4c0.6,0,1.1,0.5,1.1,1.1v16.3l-7.2-8.4c-0.8-0.9-1.9-1.4-3.1-1.4
		c-1.2,0-2.3,0.5-3.1,1.4L45,42.6l-2.8-2.8c-1.6-1.6-4.1-1.6-5.7,0l-6.3,6.3V24.5C30.2,23.9,30.8,23.4,31.4,23.4z"/>
</g>
</svg>
