<?xml version="1.0" encoding="utf-8"?>
<!-- Generator: Adobe Illustrator 25.0.0, SVG Export Plug-In . SVG Version: 6.00 Build 0)  -->
<svg version="1.1" id="color" xmlns="http://www.w3.org/2000/svg" xmlns:xlink="http://www.w3.org/1999/xlink" x="0px" y="0px"
	 viewBox="0 0 36 36" style="enable-background:new 0 0 36 36;" xml:space="preserve">
<style type="text/css">
	.st0{fill:#607D8B;}
	.st1{fill:#FFFFFF;}
	.st2{fill:#F9F9F9;}
</style>
<g>
	<path class="st0" d="M1.5,12C2.3,12,3,11.3,3,10.5v-6C3,3.7,3.7,3,4.5,3h6C11.3,3,12,2.3,12,1.5S11.3,0,10.5,0h-6C2,0,0,2,0,4.5v6
		C0,11.3,0.7,12,1.5,12z"/>
	<path class="st0" d="M4.5,36h6c0.8,0,1.5-0.7,1.5-1.5S11.3,33,10.5,33h-6C3.7,33,3,32.3,3,31.5v-6C3,24.7,2.3,24,1.5,24
		S0,24.7,0,25.5v6C0,34,2,36,4.5,36z"/>
	<path class="st1" d="M25.5,36h6c2.5,0,4.5-2,4.5-4.5v-6c0-0.8-0.7-1.5-1.5-1.5S33,24.7,33,25.5v6c0,0.8-0.7,1.5-1.5,1.5h-6
		c-0.8,0-1.5,0.7-1.5,1.5S24.7,36,25.5,36z"/>
	<path class="st1" d="M34.5,12c0.8,0,1.5-0.7,1.5-1.5v-6C36,2,34,0,31.5,0h-6C24.7,0,24,0.7,24,1.5S24.7,3,25.5,3h6
		C32.3,3,33,3.7,33,4.5v6C33,11.3,33.7,12,34.5,12z"/>
</g>
<path class="st1" d="M7.5,26.1v-3.8c0-0.8,0.7-1.5,1.5-1.5h18c0.8,0,1.5,0.7,1.5,1.5v3.8c0,1.7-1.3,3-3,3h-15
	C8.8,29.1,7.5,27.8,7.5,26.1z"/>
<path class="st1" d="M7.5,15v-4.5c0-1.7,1.3-3,3-3h15c1.7,0,3,1.3,3,3V15c0,0.8-0.7,1.5-1.5,1.5H9C8.2,16.5,7.5,15.8,7.5,15z"/>
<path class="st1" d="M6,22.5h24c0.8,0,1.5-0.7,1.5-1.5s-0.7-1.5-1.5-1.5H6c-0.8,0-1.5,0.7-1.5,1.5S5.2,22.5,6,22.5z"/>
<path class="st1" d="M10.5,0h-6C2,0,0,2,0,4.5v6C0,11.3,0.7,12,1.5,12S3,11.3,3,10.5v-6C3,3.7,3.7,3,4.5,3h6C11.3,3,12,2.3,12,1.5
	S11.3,0,10.5,0z"/>
<path class="st1" d="M1.5,24C0.7,24,0,24.7,0,25.5v6C0,34,2,36,4.5,36h6c0.8,0,1.5-0.7,1.5-1.5S11.3,33,10.5,33h-6
	C3.7,33,3,32.3,3,31.5v-6C3,24.7,2.3,24,1.5,24z"/>
<path class="st1" d="M18,22.5H7.5v3.6c0,1.7,1.3,3,3,3H18V22.5z"/>
<path class="st1" d="M18,7.5h-7.5c-1.7,0-3,1.3-3,3V15c0,0.8,0.7,1.5,1.5,1.5h9V7.5z"/>
<path class="st2" d="M18,19.5H6c-0.8,0-1.5,0.7-1.5,1.5s0.7,1.5,1.5,1.5h1.5H18V19.5z"/>
</svg>
